# xmcd CD database file
#
# Track frame offsets:
#	150
#	20840
#	41025
#	60495
#	80088
#	101095
#	118155
#	139453
#	159368
#	181108
#	202138
#	219550
#	238838
#	268370
#	332550
#
# Disc length: 4440 seconds
#
# Revision: 32
# Processed by: cddbd v1.5.2PL0 Copyright (c) Steve Scherf et al.
# Submitted via: CDex 1.70beta3
#
DISCID=ea11560f
DTITLE=ポルノグラフィティ - PORNO GRAFFITTI BEST RED'S
DYEAR=2004
DGENRE=Rock
TTITLE0=ミュージック・アワー
TTITLE1=Century Lovers
TTITLE2=愛が呼ぶほうへ
TTITLE3=サウダージ
TTITLE4=ヴォイス
TTITLE5=ラック
TTITLE6=幸せについて本気出して考えてみた
TTITLE7=Go Steady Go!
TTITLE8=狼
TTITLE9=ヴィンテージ
TTITLE10=ジレンマ
TTITLE11=Mugen
TTITLE12=フィルムズ
TTITLE13=CCCD Data
TTITLE14=CCCD Data
EXTD=YEAR: 2004
EXTT0=
EXTT1=
EXTT2=
EXTT3=
EXTT4=
EXTT5=
EXTT6=
EXTT7=
EXTT8=
EXTT9=
EXTT10=
EXTT11=
EXTT12=
EXTT13=
EXTT14=
PLAYORDER=
